<mxfile host="app.diagrams.net" agent="Mozilla/5.0 (X11; Linux x86_64) AppleWebKit/537.36 (KHTML, like Gecko) Chrome/131.0.0.0 Safari/537.36" version="26.0.10">
  <diagram name="PÃ¡gina-1" id="NkT-k_2-5lQT9ac8saxS">
    <mxGraphModel dx="2206" dy="1160" grid="1" gridSize="10" guides="1" tooltips="1" connect="1" arrows="1" fold="1" page="1" pageScale="1" pageWidth="827" pageHeight="1169" math="0" shadow="0">
      <root>
        <mxCell id="0" />
        <mxCell id="1" parent="0" />
        <mxCell id="EcMKRn9O6Pbbp-bMpaG4-8" value="TABLE Patterns" style="swimlane;fontStyle=0;childLayout=stackLayout;horizontal=1;startSize=30;horizontalStack=0;resizeParent=1;resizeParentMax=0;resizeLast=0;collapsible=1;marginBottom=0;whiteSpace=wrap;html=1;" vertex="1" parent="1">
          <mxGeometry x="30" y="30" width="160" height="270" as="geometry">
            <mxRectangle x="20" y="30" width="130" height="30" as="alternateBounds" />
          </mxGeometry>
        </mxCell>
        <mxCell id="EcMKRn9O6Pbbp-bMpaG4-9" value="id: Primary key integer" style="text;strokeColor=none;fillColor=none;align=left;verticalAlign=middle;spacingLeft=4;spacingRight=4;overflow=hidden;points=[[0,0.5],[1,0.5]];portConstraint=eastwest;rotatable=0;whiteSpace=wrap;html=1;" vertex="1" parent="EcMKRn9O6Pbbp-bMpaG4-8">
          <mxGeometry y="30" width="160" height="30" as="geometry" />
        </mxCell>
        <mxCell id="EcMKRn9O6Pbbp-bMpaG4-10" value="name: String" style="text;strokeColor=none;fillColor=none;align=left;verticalAlign=middle;spacingLeft=4;spacingRight=4;overflow=hidden;points=[[0,0.5],[1,0.5]];portConstraint=eastwest;rotatable=0;whiteSpace=wrap;html=1;" vertex="1" parent="EcMKRn9O6Pbbp-bMpaG4-8">
          <mxGeometry y="60" width="160" height="30" as="geometry" />
        </mxCell>
        <mxCell id="EcMKRn9O6Pbbp-bMpaG4-11" value="category: Integer" style="text;strokeColor=none;fillColor=none;align=left;verticalAlign=middle;spacingLeft=4;spacingRight=4;overflow=hidden;points=[[0,0.5],[1,0.5]];portConstraint=eastwest;rotatable=0;whiteSpace=wrap;html=1;" vertex="1" parent="EcMKRn9O6Pbbp-bMpaG4-8">
          <mxGeometry y="90" width="160" height="30" as="geometry" />
        </mxCell>
        <mxCell id="EcMKRn9O6Pbbp-bMpaG4-12" value="favorite: Boolean" style="text;strokeColor=none;fillColor=none;align=left;verticalAlign=middle;spacingLeft=4;spacingRight=4;overflow=hidden;points=[[0,0.5],[1,0.5]];portConstraint=eastwest;rotatable=0;whiteSpace=wrap;html=1;" vertex="1" parent="EcMKRn9O6Pbbp-bMpaG4-8">
          <mxGeometry y="120" width="160" height="30" as="geometry" />
        </mxCell>
        <mxCell id="EcMKRn9O6Pbbp-bMpaG4-13" value="file: String" style="text;strokeColor=none;fillColor=none;align=left;verticalAlign=middle;spacingLeft=4;spacingRight=4;overflow=hidden;points=[[0,0.5],[1,0.5]];portConstraint=eastwest;rotatable=0;whiteSpace=wrap;html=1;" vertex="1" parent="EcMKRn9O6Pbbp-bMpaG4-8">
          <mxGeometry y="150" width="160" height="30" as="geometry" />
        </mxCell>
        <mxCell id="EcMKRn9O6Pbbp-bMpaG4-14" value="image: String" style="text;strokeColor=none;fillColor=none;align=left;verticalAlign=middle;spacingLeft=4;spacingRight=4;overflow=hidden;points=[[0,0.5],[1,0.5]];portConstraint=eastwest;rotatable=0;whiteSpace=wrap;html=1;" vertex="1" parent="EcMKRn9O6Pbbp-bMpaG4-8">
          <mxGeometry y="180" width="160" height="30" as="geometry" />
        </mxCell>
        <mxCell id="EcMKRn9O6Pbbp-bMpaG4-15" value="create_at: Datetime create" style="text;strokeColor=none;fillColor=none;align=left;verticalAlign=middle;spacingLeft=4;spacingRight=4;overflow=hidden;points=[[0,0.5],[1,0.5]];portConstraint=eastwest;rotatable=0;whiteSpace=wrap;html=1;" vertex="1" parent="EcMKRn9O6Pbbp-bMpaG4-8">
          <mxGeometry y="210" width="160" height="30" as="geometry" />
        </mxCell>
        <mxCell id="EcMKRn9O6Pbbp-bMpaG4-16" value="update_at: Datetime update" style="text;strokeColor=none;fillColor=none;align=left;verticalAlign=middle;spacingLeft=4;spacingRight=4;overflow=hidden;points=[[0,0.5],[1,0.5]];portConstraint=eastwest;rotatable=0;whiteSpace=wrap;html=1;" vertex="1" parent="EcMKRn9O6Pbbp-bMpaG4-8">
          <mxGeometry y="240" width="160" height="30" as="geometry" />
        </mxCell>
        <mxCell id="EcMKRn9O6Pbbp-bMpaG4-17" value="TABLE categories" style="swimlane;fontStyle=0;childLayout=stackLayout;horizontal=1;startSize=30;horizontalStack=0;resizeParent=1;resizeParentMax=0;resizeLast=0;collapsible=1;marginBottom=0;whiteSpace=wrap;html=1;" vertex="1" parent="1">
          <mxGeometry x="200" y="30" width="140" height="90" as="geometry" />
        </mxCell>
        <mxCell id="EcMKRn9O6Pbbp-bMpaG4-18" value="id: Primary key integer" style="text;strokeColor=none;fillColor=none;align=left;verticalAlign=middle;spacingLeft=4;spacingRight=4;overflow=hidden;points=[[0,0.5],[1,0.5]];portConstraint=eastwest;rotatable=0;whiteSpace=wrap;html=1;" vertex="1" parent="EcMKRn9O6Pbbp-bMpaG4-17">
          <mxGeometry y="30" width="140" height="30" as="geometry" />
        </mxCell>
        <mxCell id="EcMKRn9O6Pbbp-bMpaG4-19" value="name: String" style="text;strokeColor=none;fillColor=none;align=left;verticalAlign=middle;spacingLeft=4;spacingRight=4;overflow=hidden;points=[[0,0.5],[1,0.5]];portConstraint=eastwest;rotatable=0;whiteSpace=wrap;html=1;" vertex="1" parent="EcMKRn9O6Pbbp-bMpaG4-17">
          <mxGeometry y="60" width="140" height="30" as="geometry" />
        </mxCell>
        <mxCell id="EcMKRn9O6Pbbp-bMpaG4-23" value="" style="edgeStyle=orthogonalEdgeStyle;rounded=0;orthogonalLoop=1;jettySize=auto;html=1;" edge="1" parent="1" source="EcMKRn9O6Pbbp-bMpaG4-21" target="EcMKRn9O6Pbbp-bMpaG4-22">
          <mxGeometry relative="1" as="geometry" />
        </mxCell>
        <mxCell id="EcMKRn9O6Pbbp-bMpaG4-63" value="" style="edgeStyle=orthogonalEdgeStyle;rounded=0;orthogonalLoop=1;jettySize=auto;html=1;" edge="1" parent="1" source="EcMKRn9O6Pbbp-bMpaG4-21" target="EcMKRn9O6Pbbp-bMpaG4-62">
          <mxGeometry relative="1" as="geometry" />
        </mxCell>
        <mxCell id="EcMKRn9O6Pbbp-bMpaG4-21" value="/" style="ellipse;whiteSpace=wrap;html=1;" vertex="1" parent="1">
          <mxGeometry x="330" y="560" width="120" height="80" as="geometry" />
        </mxCell>
        <mxCell id="EcMKRn9O6Pbbp-bMpaG4-25" value="" style="edgeStyle=orthogonalEdgeStyle;rounded=0;orthogonalLoop=1;jettySize=auto;html=1;" edge="1" parent="1" source="EcMKRn9O6Pbbp-bMpaG4-22" target="EcMKRn9O6Pbbp-bMpaG4-24">
          <mxGeometry relative="1" as="geometry" />
        </mxCell>
        <mxCell id="EcMKRn9O6Pbbp-bMpaG4-53" value="" style="edgeStyle=orthogonalEdgeStyle;rounded=0;orthogonalLoop=1;jettySize=auto;html=1;" edge="1" parent="1" source="EcMKRn9O6Pbbp-bMpaG4-22" target="EcMKRn9O6Pbbp-bMpaG4-43">
          <mxGeometry relative="1" as="geometry" />
        </mxCell>
        <mxCell id="EcMKRn9O6Pbbp-bMpaG4-69" style="edgeStyle=orthogonalEdgeStyle;rounded=0;orthogonalLoop=1;jettySize=auto;html=1;entryX=0.5;entryY=0;entryDx=0;entryDy=0;" edge="1" parent="1" source="EcMKRn9O6Pbbp-bMpaG4-22" target="EcMKRn9O6Pbbp-bMpaG4-70">
          <mxGeometry relative="1" as="geometry">
            <mxPoint x="210" y="550" as="targetPoint" />
          </mxGeometry>
        </mxCell>
        <mxCell id="EcMKRn9O6Pbbp-bMpaG4-95" style="edgeStyle=orthogonalEdgeStyle;rounded=0;orthogonalLoop=1;jettySize=auto;html=1;" edge="1" parent="1" source="EcMKRn9O6Pbbp-bMpaG4-22">
          <mxGeometry relative="1" as="geometry">
            <mxPoint x="160" y="400" as="targetPoint" />
          </mxGeometry>
        </mxCell>
        <mxCell id="EcMKRn9O6Pbbp-bMpaG4-97" style="edgeStyle=orthogonalEdgeStyle;rounded=0;orthogonalLoop=1;jettySize=auto;html=1;" edge="1" parent="1" source="EcMKRn9O6Pbbp-bMpaG4-22">
          <mxGeometry relative="1" as="geometry">
            <mxPoint x="270" y="370" as="targetPoint" />
          </mxGeometry>
        </mxCell>
        <mxCell id="EcMKRn9O6Pbbp-bMpaG4-22" value="GET" style="ellipse;whiteSpace=wrap;html=1;" vertex="1" parent="1">
          <mxGeometry x="330" y="400" width="120" height="80" as="geometry" />
        </mxCell>
        <mxCell id="EcMKRn9O6Pbbp-bMpaG4-27" value="" style="edgeStyle=orthogonalEdgeStyle;rounded=0;orthogonalLoop=1;jettySize=auto;html=1;entryX=0.5;entryY=1;entryDx=0;entryDy=0;" edge="1" parent="1" target="EcMKRn9O6Pbbp-bMpaG4-26">
          <mxGeometry relative="1" as="geometry">
            <mxPoint x="390" y="220" as="sourcePoint" />
            <mxPoint x="480.0158730158731" y="150" as="targetPoint" />
          </mxGeometry>
        </mxCell>
        <mxCell id="EcMKRn9O6Pbbp-bMpaG4-32" style="edgeStyle=orthogonalEdgeStyle;rounded=0;orthogonalLoop=1;jettySize=auto;html=1;entryX=0.5;entryY=1;entryDx=0;entryDy=0;" edge="1" parent="1">
          <mxGeometry relative="1" as="geometry">
            <mxPoint x="390" y="250" as="sourcePoint" />
            <mxPoint x="590" y="180" as="targetPoint" />
            <Array as="points">
              <mxPoint x="390" y="220" />
              <mxPoint x="590" y="220" />
            </Array>
          </mxGeometry>
        </mxCell>
        <mxCell id="EcMKRn9O6Pbbp-bMpaG4-36" value="" style="edgeStyle=orthogonalEdgeStyle;rounded=0;orthogonalLoop=1;jettySize=auto;html=1;" edge="1" parent="1" source="EcMKRn9O6Pbbp-bMpaG4-24" target="EcMKRn9O6Pbbp-bMpaG4-35">
          <mxGeometry relative="1" as="geometry" />
        </mxCell>
        <mxCell id="EcMKRn9O6Pbbp-bMpaG4-37" value="" style="edgeStyle=orthogonalEdgeStyle;rounded=0;orthogonalLoop=1;jettySize=auto;html=1;" edge="1" parent="1" source="EcMKRn9O6Pbbp-bMpaG4-24" target="EcMKRn9O6Pbbp-bMpaG4-35">
          <mxGeometry relative="1" as="geometry" />
        </mxCell>
        <mxCell id="EcMKRn9O6Pbbp-bMpaG4-42" style="edgeStyle=orthogonalEdgeStyle;rounded=0;orthogonalLoop=1;jettySize=auto;html=1;" edge="1" parent="1" source="EcMKRn9O6Pbbp-bMpaG4-24" target="EcMKRn9O6Pbbp-bMpaG4-43">
          <mxGeometry relative="1" as="geometry">
            <mxPoint x="489.9999999999998" y="350" as="targetPoint" />
            <Array as="points">
              <mxPoint x="500" y="290" />
              <mxPoint x="500" y="350" />
              <mxPoint x="530" y="350" />
            </Array>
          </mxGeometry>
        </mxCell>
        <mxCell id="EcMKRn9O6Pbbp-bMpaG4-99" style="edgeStyle=orthogonalEdgeStyle;rounded=0;orthogonalLoop=1;jettySize=auto;html=1;entryX=0.5;entryY=1;entryDx=0;entryDy=0;" edge="1" parent="1" target="EcMKRn9O6Pbbp-bMpaG4-100">
          <mxGeometry relative="1" as="geometry">
            <mxPoint x="320" y="226" as="targetPoint" />
            <mxPoint x="340.0000153061244" y="289.9985714285714" as="sourcePoint" />
          </mxGeometry>
        </mxCell>
        <mxCell id="EcMKRn9O6Pbbp-bMpaG4-24" value="/patterns" style="ellipse;whiteSpace=wrap;html=1;" vertex="1" parent="1">
          <mxGeometry x="330" y="250" width="120" height="80" as="geometry" />
        </mxCell>
        <mxCell id="EcMKRn9O6Pbbp-bMpaG4-26" value="?substring: String" style="shape=parallelogram;perimeter=parallelogramPerimeter;whiteSpace=wrap;html=1;fixedSize=1;" vertex="1" parent="1">
          <mxGeometry x="420" y="120" width="120" height="60" as="geometry" />
        </mxCell>
        <mxCell id="EcMKRn9O6Pbbp-bMpaG4-28" value="?favorite: Boolean" style="shape=parallelogram;perimeter=parallelogramPerimeter;whiteSpace=wrap;html=1;fixedSize=1;" vertex="1" parent="1">
          <mxGeometry x="530" y="120" width="120" height="60" as="geometry" />
        </mxCell>
        <mxCell id="EcMKRn9O6Pbbp-bMpaG4-31" value="?category: Integer" style="shape=parallelogram;perimeter=parallelogramPerimeter;whiteSpace=wrap;html=1;fixedSize=1;" vertex="1" parent="1">
          <mxGeometry x="640" y="120" width="130" height="60" as="geometry" />
        </mxCell>
        <mxCell id="EcMKRn9O6Pbbp-bMpaG4-33" style="edgeStyle=orthogonalEdgeStyle;rounded=0;orthogonalLoop=1;jettySize=auto;html=1;entryX=0.268;entryY=1.037;entryDx=0;entryDy=0;entryPerimeter=0;" edge="1" parent="1" source="EcMKRn9O6Pbbp-bMpaG4-24" target="EcMKRn9O6Pbbp-bMpaG4-31">
          <mxGeometry relative="1" as="geometry">
            <Array as="points">
              <mxPoint x="390" y="220" />
              <mxPoint x="675" y="220" />
            </Array>
          </mxGeometry>
        </mxCell>
        <mxCell id="EcMKRn9O6Pbbp-bMpaG4-41" value="" style="edgeStyle=orthogonalEdgeStyle;rounded=0;orthogonalLoop=1;jettySize=auto;html=1;" edge="1" parent="1" source="EcMKRn9O6Pbbp-bMpaG4-35" target="EcMKRn9O6Pbbp-bMpaG4-40">
          <mxGeometry relative="1" as="geometry" />
        </mxCell>
        <mxCell id="EcMKRn9O6Pbbp-bMpaG4-35" value="/patterns/preview" style="ellipse;whiteSpace=wrap;html=1;" vertex="1" parent="1">
          <mxGeometry x="520" y="250" width="120" height="80" as="geometry" />
        </mxCell>
        <mxCell id="EcMKRn9O6Pbbp-bMpaG4-40" value="?id: Integer" style="shape=parallelogram;perimeter=parallelogramPerimeter;whiteSpace=wrap;html=1;fixedSize=1;" vertex="1" parent="1">
          <mxGeometry x="680" y="260" width="120" height="60" as="geometry" />
        </mxCell>
        <mxCell id="EcMKRn9O6Pbbp-bMpaG4-43" value="/patterns/delete" style="ellipse;whiteSpace=wrap;html=1;" vertex="1" parent="1">
          <mxGeometry x="550" y="350" width="120" height="80" as="geometry" />
        </mxCell>
        <mxCell id="EcMKRn9O6Pbbp-bMpaG4-44" style="edgeStyle=orthogonalEdgeStyle;rounded=0;orthogonalLoop=1;jettySize=auto;html=1;entryX=0.358;entryY=1.045;entryDx=0;entryDy=0;entryPerimeter=0;" edge="1" parent="1" source="EcMKRn9O6Pbbp-bMpaG4-43" target="EcMKRn9O6Pbbp-bMpaG4-40">
          <mxGeometry relative="1" as="geometry" />
        </mxCell>
        <mxCell id="EcMKRn9O6Pbbp-bMpaG4-45" value="/patterns/export" style="ellipse;whiteSpace=wrap;html=1;" vertex="1" parent="1">
          <mxGeometry x="670" y="420" width="120" height="80" as="geometry" />
        </mxCell>
        <mxCell id="EcMKRn9O6Pbbp-bMpaG4-47" style="edgeStyle=orthogonalEdgeStyle;rounded=0;orthogonalLoop=1;jettySize=auto;html=1;entryX=0;entryY=0.625;entryDx=0;entryDy=0;entryPerimeter=0;" edge="1" parent="1" target="EcMKRn9O6Pbbp-bMpaG4-45">
          <mxGeometry relative="1" as="geometry">
            <mxPoint x="550" y="440" as="targetPoint" />
            <mxPoint x="450" y="290" as="sourcePoint" />
            <Array as="points">
              <mxPoint x="500" y="290" />
              <mxPoint x="500" y="350" />
              <mxPoint x="530" y="350" />
              <mxPoint x="530" y="470" />
            </Array>
          </mxGeometry>
        </mxCell>
        <mxCell id="EcMKRn9O6Pbbp-bMpaG4-48" style="edgeStyle=orthogonalEdgeStyle;rounded=0;orthogonalLoop=1;jettySize=auto;html=1;entryX=0.614;entryY=1.011;entryDx=0;entryDy=0;entryPerimeter=0;" edge="1" parent="1" source="EcMKRn9O6Pbbp-bMpaG4-45" target="EcMKRn9O6Pbbp-bMpaG4-40">
          <mxGeometry relative="1" as="geometry" />
        </mxCell>
        <mxCell id="EcMKRn9O6Pbbp-bMpaG4-57" value="" style="edgeStyle=orthogonalEdgeStyle;rounded=0;orthogonalLoop=1;jettySize=auto;html=1;" edge="1" parent="1" source="EcMKRn9O6Pbbp-bMpaG4-54" target="EcMKRn9O6Pbbp-bMpaG4-56">
          <mxGeometry relative="1" as="geometry" />
        </mxCell>
        <mxCell id="EcMKRn9O6Pbbp-bMpaG4-54" value="/media" style="ellipse;whiteSpace=wrap;html=1;" vertex="1" parent="1">
          <mxGeometry x="160" y="720" width="120" height="80" as="geometry" />
        </mxCell>
        <mxCell id="EcMKRn9O6Pbbp-bMpaG4-66" value="" style="edgeStyle=orthogonalEdgeStyle;rounded=0;orthogonalLoop=1;jettySize=auto;html=1;" edge="1" parent="1" source="EcMKRn9O6Pbbp-bMpaG4-56" target="EcMKRn9O6Pbbp-bMpaG4-65">
          <mxGeometry relative="1" as="geometry" />
        </mxCell>
        <mxCell id="EcMKRn9O6Pbbp-bMpaG4-56" value="/media/upload" style="ellipse;whiteSpace=wrap;html=1;" vertex="1" parent="1">
          <mxGeometry x="160" y="860" width="120" height="80" as="geometry" />
        </mxCell>
        <mxCell id="EcMKRn9O6Pbbp-bMpaG4-64" style="edgeStyle=orthogonalEdgeStyle;rounded=0;orthogonalLoop=1;jettySize=auto;html=1;entryX=1;entryY=0.5;entryDx=0;entryDy=0;" edge="1" parent="1" source="EcMKRn9O6Pbbp-bMpaG4-62" target="EcMKRn9O6Pbbp-bMpaG4-54">
          <mxGeometry relative="1" as="geometry" />
        </mxCell>
        <mxCell id="EcMKRn9O6Pbbp-bMpaG4-84" value="" style="edgeStyle=orthogonalEdgeStyle;rounded=0;orthogonalLoop=1;jettySize=auto;html=1;" edge="1" parent="1" source="EcMKRn9O6Pbbp-bMpaG4-62" target="EcMKRn9O6Pbbp-bMpaG4-83">
          <mxGeometry relative="1" as="geometry" />
        </mxCell>
        <mxCell id="EcMKRn9O6Pbbp-bMpaG4-88" value="" style="edgeStyle=orthogonalEdgeStyle;rounded=0;orthogonalLoop=1;jettySize=auto;html=1;" edge="1" parent="1" source="EcMKRn9O6Pbbp-bMpaG4-62" target="EcMKRn9O6Pbbp-bMpaG4-87">
          <mxGeometry relative="1" as="geometry" />
        </mxCell>
        <mxCell id="EcMKRn9O6Pbbp-bMpaG4-62" value="POST" style="ellipse;whiteSpace=wrap;html=1;" vertex="1" parent="1">
          <mxGeometry x="330" y="720" width="120" height="80" as="geometry" />
        </mxCell>
        <mxCell id="EcMKRn9O6Pbbp-bMpaG4-65" value="file: File" style="whiteSpace=wrap;html=1;" vertex="1" parent="1">
          <mxGeometry x="160" y="1030" width="120" height="60" as="geometry" />
        </mxCell>
        <mxCell id="EcMKRn9O6Pbbp-bMpaG4-76" value="" style="edgeStyle=orthogonalEdgeStyle;rounded=0;orthogonalLoop=1;jettySize=auto;html=1;" edge="1" parent="1" source="EcMKRn9O6Pbbp-bMpaG4-70" target="EcMKRn9O6Pbbp-bMpaG4-75">
          <mxGeometry relative="1" as="geometry" />
        </mxCell>
        <mxCell id="EcMKRn9O6Pbbp-bMpaG4-70" value="/media/delete" style="ellipse;whiteSpace=wrap;html=1;" vertex="1" parent="1">
          <mxGeometry x="150" y="460" width="120" height="80" as="geometry" />
        </mxCell>
        <mxCell id="EcMKRn9O6Pbbp-bMpaG4-75" value="?name: String" style="shape=parallelogram;perimeter=parallelogramPerimeter;whiteSpace=wrap;html=1;fixedSize=1;" vertex="1" parent="1">
          <mxGeometry x="150" y="570" width="120" height="60" as="geometry" />
        </mxCell>
        <mxCell id="EcMKRn9O6Pbbp-bMpaG4-79" value="" style="edgeStyle=orthogonalEdgeStyle;rounded=0;orthogonalLoop=1;jettySize=auto;html=1;entryX=0.5;entryY=0;entryDx=0;entryDy=0;" edge="1" parent="1" target="EcMKRn9O6Pbbp-bMpaG4-80">
          <mxGeometry relative="1" as="geometry">
            <mxPoint x="450" y="440" as="sourcePoint" />
            <mxPoint x="500" y="520" as="targetPoint" />
          </mxGeometry>
        </mxCell>
        <mxCell id="EcMKRn9O6Pbbp-bMpaG4-82" value="" style="edgeStyle=orthogonalEdgeStyle;rounded=0;orthogonalLoop=1;jettySize=auto;html=1;" edge="1" parent="1" source="EcMKRn9O6Pbbp-bMpaG4-80" target="EcMKRn9O6Pbbp-bMpaG4-81">
          <mxGeometry relative="1" as="geometry" />
        </mxCell>
        <mxCell id="EcMKRn9O6Pbbp-bMpaG4-80" value="/categories" style="ellipse;whiteSpace=wrap;html=1;" vertex="1" parent="1">
          <mxGeometry x="480" y="520" width="120" height="80" as="geometry" />
        </mxCell>
        <mxCell id="EcMKRn9O6Pbbp-bMpaG4-81" value="?sort: Boolean" style="shape=parallelogram;perimeter=parallelogramPerimeter;whiteSpace=wrap;html=1;fixedSize=1;" vertex="1" parent="1">
          <mxGeometry x="680" y="530" width="120" height="60" as="geometry" />
        </mxCell>
        <mxCell id="EcMKRn9O6Pbbp-bMpaG4-86" value="" style="edgeStyle=orthogonalEdgeStyle;rounded=0;orthogonalLoop=1;jettySize=auto;html=1;" edge="1" parent="1" source="EcMKRn9O6Pbbp-bMpaG4-83" target="EcMKRn9O6Pbbp-bMpaG4-85">
          <mxGeometry relative="1" as="geometry" />
        </mxCell>
        <mxCell id="EcMKRn9O6Pbbp-bMpaG4-83" value="/categories/create" style="ellipse;whiteSpace=wrap;html=1;" vertex="1" parent="1">
          <mxGeometry x="530" y="720" width="120" height="80" as="geometry" />
        </mxCell>
        <mxCell id="EcMKRn9O6Pbbp-bMpaG4-85" value="name: String" style="whiteSpace=wrap;html=1;" vertex="1" parent="1">
          <mxGeometry x="730" y="730" width="120" height="60" as="geometry" />
        </mxCell>
        <mxCell id="EcMKRn9O6Pbbp-bMpaG4-90" value="" style="edgeStyle=orthogonalEdgeStyle;rounded=0;orthogonalLoop=1;jettySize=auto;html=1;" edge="1" parent="1" source="EcMKRn9O6Pbbp-bMpaG4-87" target="EcMKRn9O6Pbbp-bMpaG4-89">
          <mxGeometry relative="1" as="geometry" />
        </mxCell>
        <mxCell id="EcMKRn9O6Pbbp-bMpaG4-87" value="/patterns/update" style="ellipse;whiteSpace=wrap;html=1;" vertex="1" parent="1">
          <mxGeometry x="330" y="880" width="120" height="80" as="geometry" />
        </mxCell>
        <mxCell id="EcMKRn9O6Pbbp-bMpaG4-89" value="name: String&lt;div&gt;category: Integer&lt;/div&gt;&lt;div&gt;favorite: Boolean&lt;/div&gt;" style="whiteSpace=wrap;html=1;" vertex="1" parent="1">
          <mxGeometry x="530" y="890" width="120" height="60" as="geometry" />
        </mxCell>
        <mxCell id="EcMKRn9O6Pbbp-bMpaG4-91" value="" style="edgeStyle=orthogonalEdgeStyle;rounded=0;orthogonalLoop=1;jettySize=auto;html=1;entryX=0;entryY=0.5;entryDx=0;entryDy=0;" edge="1" parent="1" target="EcMKRn9O6Pbbp-bMpaG4-92">
          <mxGeometry relative="1" as="geometry">
            <mxPoint x="389.66" y="800" as="sourcePoint" />
            <mxPoint x="470" y="840" as="targetPoint" />
            <Array as="points">
              <mxPoint x="390" y="840" />
            </Array>
          </mxGeometry>
        </mxCell>
        <mxCell id="EcMKRn9O6Pbbp-bMpaG4-94" value="" style="edgeStyle=orthogonalEdgeStyle;rounded=0;orthogonalLoop=1;jettySize=auto;html=1;" edge="1" parent="1" source="EcMKRn9O6Pbbp-bMpaG4-92" target="EcMKRn9O6Pbbp-bMpaG4-93">
          <mxGeometry relative="1" as="geometry" />
        </mxCell>
        <mxCell id="EcMKRn9O6Pbbp-bMpaG4-92" value="/patterns/upload" style="ellipse;whiteSpace=wrap;html=1;" vertex="1" parent="1">
          <mxGeometry x="480" y="800" width="120" height="80" as="geometry" />
        </mxCell>
        <mxCell id="EcMKRn9O6Pbbp-bMpaG4-93" value="name: String&lt;div&gt;category: Integer&lt;/div&gt;&lt;div&gt;favorite: Boolean&lt;/div&gt;&lt;div&gt;file: File&lt;/div&gt;" style="whiteSpace=wrap;html=1;" vertex="1" parent="1">
          <mxGeometry x="680" y="810" width="120" height="110" as="geometry" />
        </mxCell>
        <mxCell id="EcMKRn9O6Pbbp-bMpaG4-96" value="/media/kick" style="ellipse;whiteSpace=wrap;html=1;" vertex="1" parent="1">
          <mxGeometry x="40" y="360" width="120" height="80" as="geometry" />
        </mxCell>
        <mxCell id="EcMKRn9O6Pbbp-bMpaG4-98" value="/media" style="ellipse;whiteSpace=wrap;html=1;" vertex="1" parent="1">
          <mxGeometry x="210" y="290" width="120" height="80" as="geometry" />
        </mxCell>
        <mxCell id="EcMKRn9O6Pbbp-bMpaG4-100" value="/patterns/{id: Integer}" style="ellipse;whiteSpace=wrap;html=1;" vertex="1" parent="1">
          <mxGeometry x="260" y="140" width="120" height="80" as="geometry" />
        </mxCell>
      </root>
    </mxGraphModel>
  </diagram>
</mxfile>
